<svg width="196" height="147" viewBox="0 0 196 147" fill="none" xmlns="http://www.w3.org/2000/svg">
<path d="M77.6647 88.4216C61.7019 84.7138 48.1509 86.4639 36.7651 70.8222C25.9979 56.0378 29.0205 42.9841 40.054 31.7745C68.8826 2.5034 97.5625 39.7305 133.513 45.6974C164.836 50.897 173.966 102.607 146.978 120.614C138.282 126.42 121.195 131.764 111.019 123.942C96.7755 112.975 99.6063 93.5116 77.6647 88.4216Z" fill="#51398E"/>
<path opacity="0.9" d="M77.6647 88.4216C61.7019 84.7138 48.1509 86.4639 36.7651 70.8222C25.9979 56.0378 29.0205 42.9841 40.054 31.7745C68.8826 2.5034 97.5625 39.7305 133.513 45.6974C164.836 50.897 173.966 102.607 146.978 120.614C138.282 126.42 121.195 131.764 111.019 123.942C96.7755 112.975 99.6063 93.5116 77.6647 88.4216Z" fill="white"/>
<path d="M97.8834 146.807C139.81 146.807 173.798 144.823 173.798 142.375C173.798 139.927 139.81 137.943 97.8834 137.943C55.957 137.943 21.9689 139.927 21.9689 142.375C21.9689 144.823 55.957 146.807 97.8834 146.807Z" fill="#F5F5F5"/>
<path d="M139.183 138.487C139.183 139.269 138.906 140.027 138.4 140.624C137.895 141.221 137.194 141.62 136.422 141.748C126.923 143.351 117.222 143.351 107.723 141.748C106.954 141.616 106.257 141.216 105.756 140.619C105.254 140.022 104.98 139.267 104.982 138.487V106.773H139.198L139.183 138.487Z" fill="#51398E"/>
<path opacity="0.3" d="M104.963 107.344V111.796C107.022 112.56 113.784 113.12 122.073 113.12C130.361 113.12 137.135 112.56 139.183 111.796V107.344H104.963Z" fill="black"/>
<path d="M139.825 110.739C139.825 111.745 132.057 112.56 122.072 112.56C112.088 112.56 104.32 111.745 104.32 110.739L103.995 106.784H140.169L139.825 110.739Z" fill="#51398E"/>
<path d="M122.073 108.601C132.057 108.601 140.15 107.788 140.15 106.784C140.15 105.781 132.057 104.968 122.073 104.968C112.089 104.968 103.996 105.781 103.996 106.784C103.996 107.788 112.089 108.601 122.073 108.601Z" fill="#51398E"/>
<path opacity="0.3" d="M122.073 108.601C132.057 108.601 140.15 107.788 140.15 106.784C140.15 105.781 132.057 104.968 122.073 104.968C112.089 104.968 103.996 105.781 103.996 106.784C103.996 107.788 112.089 108.601 122.073 108.601Z" fill="black"/>
<path opacity="0.2" d="M109.551 136.255C109.2 136.254 108.863 136.114 108.614 135.865C108.365 135.617 108.225 135.28 108.224 134.928V116.745C108.225 116.393 108.365 116.056 108.614 115.808C108.863 115.559 109.2 115.419 109.551 115.418C109.903 115.42 110.239 115.56 110.488 115.809C110.736 116.057 110.877 116.394 110.879 116.745V134.928C110.877 135.279 110.736 135.616 110.488 135.864C110.239 136.113 109.903 136.253 109.551 136.255Z" fill="black"/>
<path opacity="0.2" d="M134.598 136.255C134.246 136.254 133.909 136.114 133.66 135.865C133.412 135.617 133.271 135.28 133.27 134.928V116.745C133.271 116.393 133.412 116.056 133.66 115.808C133.909 115.559 134.246 115.419 134.598 115.418C134.949 115.42 135.285 115.56 135.534 115.809C135.782 116.057 135.923 116.394 135.925 116.745V134.928C135.923 135.279 135.782 135.616 135.534 135.864C135.285 136.113 134.949 136.253 134.598 136.255Z" fill="black"/>
<path opacity="0.2" d="M126.246 136.255C125.895 136.253 125.558 136.113 125.31 135.864C125.062 135.616 124.921 135.279 124.919 134.928V116.745C124.921 116.394 125.062 116.057 125.31 115.809C125.558 115.56 125.895 115.42 126.246 115.418C126.598 115.419 126.935 115.559 127.184 115.808C127.432 116.056 127.573 116.393 127.574 116.745V134.928C127.573 135.28 127.432 135.617 127.184 135.865C126.935 136.114 126.598 136.254 126.246 136.255Z" fill="black"/>
<path opacity="0.2" d="M117.899 136.255C117.547 136.253 117.211 136.113 116.962 135.864C116.714 135.616 116.573 135.279 116.571 134.928V116.745C116.573 116.394 116.714 116.057 116.962 115.809C117.211 115.56 117.547 115.42 117.899 115.418C118.25 115.419 118.587 115.559 118.836 115.808C119.085 116.056 119.225 116.393 119.226 116.745V134.928C119.225 135.28 119.085 135.617 118.836 135.865C118.587 136.114 118.25 136.254 117.899 136.255Z" fill="black"/>
<path d="M75.5191 33.8887C75.5191 34.2481 75.4125 34.5993 75.2129 34.898C75.0133 35.1968 74.7295 35.4297 74.3976 35.5672C74.0656 35.7047 73.7003 35.7406 73.3479 35.6705C72.9955 35.6004 72.6718 35.4274 72.4177 35.1734C72.1637 34.9193 71.9906 34.5956 71.9205 34.2432C71.8504 33.8908 71.8864 33.5255 72.0239 33.1935C72.1614 32.8615 72.3943 32.5778 72.693 32.3782C72.9918 32.1786 73.343 32.072 73.7023 32.072C74.1842 32.072 74.6463 32.2634 74.987 32.6041C75.3277 32.9448 75.5191 33.4069 75.5191 33.8887Z" fill="#263238"/>
<path d="M72.242 34.1511C72.2243 34.1515 72.2068 34.147 72.1916 34.138C72.1763 34.129 72.1639 34.1159 72.1558 34.1002C72.0358 33.8796 71.9603 33.6375 71.9338 33.3878C71.9073 33.138 71.9303 32.8855 72.0013 32.6447C72.0724 32.4038 72.1903 32.1793 72.3481 31.984C72.5059 31.7886 72.7007 31.6263 72.9213 31.5062C73.1419 31.3862 73.3839 31.3108 73.6337 31.2842C73.8834 31.2577 74.1359 31.2807 74.3768 31.3518C74.6176 31.4228 74.8422 31.5407 75.0375 31.6985C75.2328 31.8563 75.3951 32.0511 75.5152 32.2717C75.5267 32.2947 75.5291 32.3213 75.5218 32.346C75.5146 32.3707 75.4982 32.3917 75.4761 32.4048C75.4647 32.411 75.4523 32.4149 75.4395 32.4163C75.4267 32.4177 75.4137 32.4165 75.4014 32.4129C75.389 32.4093 75.3775 32.4032 75.3674 32.3951C75.3574 32.387 75.3491 32.377 75.3429 32.3657C75.1254 31.9659 74.7579 31.6689 74.3214 31.54C73.8849 31.4112 73.415 31.461 73.0153 31.6785C72.6155 31.8961 72.3185 32.2635 72.1896 32.7C72.0607 33.1366 72.1106 33.6064 72.3281 34.0062C72.3343 34.0175 72.3382 34.0299 72.3396 34.0427C72.341 34.0555 72.3398 34.0685 72.3362 34.0809C72.3326 34.0933 72.3265 34.1048 72.3184 34.1148C72.3103 34.1248 72.3003 34.1332 72.289 34.1393C72.2744 34.1468 72.2583 34.1508 72.242 34.1511Z" fill="#263238"/>
<path d="M70.4761 42.1893C70.1222 42.1878 69.7756 42.0883 69.4748 41.9018C69.1741 41.7153 68.9309 41.449 68.7723 41.1327C68.6137 40.8163 68.5459 40.4621 68.5764 40.1095C68.6069 39.7569 68.7346 39.4197 68.9452 39.1353C69.0953 38.9342 69.2836 38.7647 69.4992 38.6364C69.7149 38.5081 69.9537 38.4235 70.202 38.3875C70.2147 38.3852 70.2276 38.3856 70.2401 38.3886C70.2526 38.3916 70.2644 38.3971 70.2746 38.4048C70.2849 38.4125 70.2935 38.4223 70.2999 38.4334C70.3062 38.4446 70.3102 38.4569 70.3117 38.4697C70.315 38.4951 70.3083 38.5208 70.2929 38.5413C70.2776 38.5618 70.2548 38.5754 70.2294 38.5793C69.7793 38.6453 69.3738 38.8873 69.1021 39.2522C68.8304 39.6172 68.7148 40.0751 68.7808 40.5252C68.8467 40.9754 69.0888 41.3809 69.4537 41.6526C69.8186 41.9243 70.2765 42.0399 70.7267 41.9739C70.7526 41.9698 70.7792 41.9761 70.8005 41.9915C70.8218 42.0069 70.8361 42.0302 70.8402 42.0561C70.8444 42.0821 70.8381 42.1086 70.8226 42.1299C70.8072 42.1512 70.784 42.1655 70.758 42.1697C70.6645 42.182 70.5704 42.1886 70.4761 42.1893Z" fill="#263238"/>
<path d="M80.3468 45.1493C79.9795 45.1487 79.6203 45.0413 79.3131 44.84C79.2913 44.8255 79.2758 44.8032 79.27 44.7777C79.2642 44.7522 79.2684 44.7254 79.2818 44.7029C79.2968 44.6817 79.3194 44.6671 79.3449 44.662C79.3704 44.6569 79.3968 44.6617 79.4188 44.6755C79.8005 44.9232 80.2648 45.0091 80.7098 44.9144C81.1548 44.8197 81.5439 44.5521 81.7915 44.1704C82.0392 43.7888 82.1251 43.3245 82.0304 42.8795C81.9357 42.4345 81.6681 42.0454 81.2865 41.7977C81.2646 41.7833 81.2492 41.761 81.2433 41.7355C81.2375 41.71 81.2417 41.6832 81.2551 41.6607C81.2702 41.6395 81.2927 41.6249 81.3182 41.6198C81.3437 41.6147 81.3702 41.6195 81.3922 41.6333C81.8166 41.9097 82.1142 42.3429 82.2199 42.8383C82.3256 43.3336 82.2307 43.8506 81.956 44.2762C81.8204 44.4879 81.6439 44.6703 81.4368 44.8129C81.2297 44.9554 80.9962 45.0551 80.7501 45.1062C80.6174 45.1341 80.4823 45.1485 80.3468 45.1493Z" fill="#263238"/>
<path d="M72.6844 39.5542C74.1029 39.5542 75.2528 38.4042 75.2528 36.9857C75.2528 35.5672 74.1029 34.4172 72.6844 34.4172C71.2658 34.4172 70.1159 35.5672 70.1159 36.9857C70.1159 38.4042 71.2658 39.5542 72.6844 39.5542Z" fill="#263238"/>
<path d="M75.0952 42.8519C76.4254 41.5216 76.4254 39.3648 75.0951 38.0346C73.7649 36.7043 71.6081 36.7043 70.2779 38.0346C68.9476 39.3648 68.9476 41.5216 70.2779 42.8519C71.6081 44.1821 73.7649 44.1822 75.0952 42.8519Z" fill="#263238"/>
<path d="M73.0446 48.5398C75.1248 48.5398 76.8112 46.8535 76.8112 44.7733C76.8112 42.6931 75.1248 41.0067 73.0446 41.0067C70.9644 41.0067 69.2781 42.6931 69.2781 44.7733C69.2781 46.8535 70.9644 48.5398 73.0446 48.5398Z" fill="#263238"/>
<path d="M80.4786 45.894C80.9565 43.8694 79.7026 41.8408 77.678 41.363C75.6534 40.8851 73.6248 42.139 73.147 44.1636C72.6691 46.1882 73.923 48.2168 75.9476 48.6946C77.9722 49.1725 80.0008 47.9186 80.4786 45.894Z" fill="#263238"/>
<path d="M89.3051 52.7998C89.3051 53.1052 89.3051 53.4928 89.3325 53.8452C89.3599 54.1976 89.3599 54.5734 89.3834 54.9376C89.4343 55.6658 89.4852 56.4019 89.5635 57.1341C89.7044 58.6036 89.9015 60.0666 90.1547 61.5232C90.2212 61.8834 90.28 62.2514 90.3544 62.6116L90.5266 63.5004C90.5697 63.6413 90.5266 63.6139 90.4718 63.61C90.417 63.6061 90.4718 63.6805 90.7028 63.6805C91.2941 63.6212 91.8698 63.4554 92.4021 63.1911C92.7153 63.0501 93.0364 62.8974 93.3574 62.733C93.6785 62.5686 94.0035 62.3806 94.2971 62.2162L95.4404 63.5356C95.1676 63.848 94.8774 64.1448 94.5712 64.4244C94.2697 64.7115 93.9506 64.9796 93.6158 65.2271C93.265 65.4911 92.8946 65.728 92.5078 65.9357C92.0677 66.176 91.5958 66.3526 91.1061 66.4604C90.8041 66.5262 90.4948 66.5525 90.186 66.5387C89.8091 66.5168 89.4398 66.4239 89.0975 66.2646C88.7335 66.0937 88.4094 65.8483 88.1461 65.5442C87.92 65.2799 87.7352 64.9829 87.598 64.6633C87.4916 64.4187 87.4052 64.166 87.3396 63.9076L87.1869 63.336C87.0772 62.9444 86.9872 62.5725 86.8932 62.1888C86.5269 60.6495 86.2446 59.0916 86.0475 57.5217C85.9496 56.7386 85.8713 55.9555 85.8243 55.1529C85.8008 54.7614 85.7812 54.3698 85.7695 53.9548C85.7578 53.5398 85.7695 53.1717 85.7695 52.7058L89.3051 52.7998Z" fill="#FFB573"/>
<path d="M87.4061 48.5791C90.7459 51.1358 90.6128 55.9556 90.6128 55.9556L84.638 57.3847C84.638 57.3847 82.8056 52.5375 83.5495 50.7639C84.3248 48.9158 85.5268 47.1383 87.4061 48.5791Z" fill="#51398E"/>
<path opacity="0.7" d="M87.4061 48.5791C90.7459 51.1358 90.6128 55.9556 90.6128 55.9556L84.638 57.3847C84.638 57.3847 82.8056 52.5375 83.5495 50.7639C84.3248 48.9158 85.5268 47.1383 87.4061 48.5791Z" fill="white"/>
<path d="M94.0738 62.6665L95.0605 61.0063L97.535 63.6531C97.535 63.6531 95.7614 64.7886 93.9211 63.9781L94.0738 62.6665Z" fill="#FFB573"/>
<path d="M96.2783 60.2115L99.4536 62.0831L97.5351 63.6531L95.0606 61.0064L96.2783 60.2115Z" fill="#FFB573"/>
<path d="M68.7104 139.485L72.1246 139.814L74.2467 131.815L70.8286 131.486L68.7104 139.485Z" fill="#FFB573"/>
<path d="M51.2087 132.763L54.2745 134.368L57.9196 127.14L54.8539 125.535L51.2087 132.763Z" fill="#FFB573"/>
<path d="M55.0927 132.962L52.352 130.179C52.3064 130.13 52.2444 130.1 52.1779 130.094C52.1114 130.088 52.0451 130.107 51.9918 130.147L49.4742 131.999C49.4132 132.048 49.3631 132.11 49.3273 132.179C49.2914 132.249 49.2706 132.326 49.2662 132.404C49.2618 132.482 49.2738 132.56 49.3016 132.634C49.3293 132.707 49.3721 132.774 49.4272 132.829C50.3982 133.785 50.9151 134.196 52.121 135.421C52.8649 136.173 54.3919 137.947 55.4177 138.988C56.4435 140.03 57.5242 139.07 57.1914 138.546C55.6957 136.197 55.4451 134.72 55.3512 133.526C55.3342 133.314 55.2426 133.114 55.0927 132.962Z" fill="#263238"/>
<path d="M72.657 138.777H68.5185C68.4445 138.777 68.3727 138.802 68.3141 138.848C68.2554 138.893 68.2131 138.956 68.1935 139.027L67.3087 142.281C67.2865 142.358 67.2829 142.44 67.2981 142.519C67.3132 142.598 67.3467 142.672 67.3959 142.736C67.445 142.799 67.5085 142.85 67.5811 142.885C67.6536 142.92 67.7334 142.937 67.8137 142.935C69.2663 142.935 69.9554 142.935 71.7682 142.935H77.3163C78.8237 142.935 79.1408 141.412 78.5144 141.271C75.7188 140.652 74.1057 139.799 73.2443 138.984C73.0811 138.844 72.8718 138.771 72.657 138.777Z" fill="#263238"/>
<path opacity="0.2" d="M74.2427 131.819L73.1503 135.942H69.6461L70.8246 131.49L74.2427 131.819Z" fill="black"/>
<path opacity="0.2" d="M54.8501 125.535L57.9198 127.144L56.0404 130.868L52.9708 129.259L54.8501 125.535Z" fill="black"/>
<path d="M86.396 48.0857C86.396 48.0857 87.9073 48.7474 82.8409 68.7939L68.7691 67.5762C69.5013 61.8716 69.8106 58.3399 68.0918 46.3473C70.0978 46.1123 72.1181 46.0221 74.1371 46.0771C76.2774 46.1095 78.4127 46.294 80.5269 46.6292C82.5066 47.0152 84.4655 47.5013 86.396 48.0857Z" fill="#51398E"/>
<path opacity="0.7" d="M86.396 48.0857C86.396 48.0857 87.9073 48.7474 82.8409 68.7939L68.7691 67.5762C69.5013 61.8716 69.8106 58.3399 68.0918 46.3473C70.0978 46.1123 72.1181 46.0221 74.1371 46.0771C76.2774 46.1095 78.4127 46.294 80.5269 46.6292C82.5066 47.0152 84.4655 47.5013 86.396 48.0857Z" fill="white"/>
<path d="M74.137 45.9636C74.137 45.9636 73.3539 45.9636 72.3947 45.9636C71.827 46.8367 74.2232 49.3856 77.2693 51.8914C78.0054 49.6087 79.1643 49.6166 79.1643 49.6166L74.137 45.9636Z" fill="white"/>
<path d="M80.5229 46.5784C80.5229 46.5784 80.8792 46.6293 81.7328 46.825C82.2966 47.6982 82.6137 49.8829 80.9497 51.7858C80.2958 49.4366 79.1682 49.648 79.1682 49.648L80.5229 46.5784Z" fill="white"/>
<path d="M75.3899 38.9356C75.617 41.0264 75.6914 44.8086 74.137 46.0772C74.137 46.0772 75.7971 47.7764 79.1643 49.648C81.6075 47.9565 80.5269 46.6292 80.5269 46.6292C78.2795 45.8853 78.487 44.19 79.0234 42.6239L75.3899 38.9356Z" fill="#FFB573"/>
<path opacity="0.2" d="M76.8738 40.443L79.0233 42.6238C78.8914 42.9863 78.7919 43.3597 78.7258 43.7397C77.8644 43.54 76.6115 42.6395 76.5958 41.7155C76.6108 41.278 76.705 40.8469 76.8738 40.443Z" fill="black"/>
<path d="M83.4633 32.1151C84.9042 33.3915 85.327 36.5003 83.9567 38.6107C83.5452 36.4714 83.3797 34.292 83.4633 32.1151Z" fill="#263238"/>
<path d="M74.9514 34.5465C74.7008 37.9881 74.5246 39.4407 76.0124 41.4257C78.252 44.4131 82.5354 43.9629 83.8079 40.6662C84.9551 37.6944 85.1704 32.5653 82.0107 30.7564C81.3164 30.3512 80.5297 30.1308 79.7259 30.1165C78.9221 30.1021 78.128 30.2943 77.4197 30.6746C76.7114 31.0549 76.1125 31.6106 75.6803 32.2885C75.2482 32.9664 74.9972 33.7438 74.9514 34.5465Z" fill="#FFB573"/>
<path d="M74.4934 37.3185C77.0383 37.2206 78.4479 33.8926 77.8097 32.487C80.6953 33.9905 85.0648 35.1729 84.5793 33.2387C83.9254 30.6272 80.7657 28.7126 76.8778 30.1065C74.6265 31.0853 72.7001 33.2387 74.4934 37.3185Z" fill="#263238"/>
<path d="M73.718 37.3147C73.8268 37.9728 74.1895 38.5619 74.7282 38.9552C75.4486 39.4681 76.1064 38.8965 76.1573 38.0625C76.2043 37.3069 75.8871 36.1323 75.0414 35.9522C74.8562 35.9154 74.6648 35.9255 74.4845 35.9817C74.3042 36.0378 74.1408 36.1382 74.0093 36.2736C73.8777 36.4091 73.7822 36.5753 73.7313 36.7571C73.6804 36.939 73.6759 37.1307 73.718 37.3147Z" fill="#FFB573"/>
<path d="M82.8408 68.794C82.8408 68.794 86.024 89.5648 84.2503 102.908C82.9074 112.99 74.2427 134.744 74.2427 134.744L68.6164 134.591C68.6164 134.591 74.4268 113.507 75.6288 105.226C77.6843 91.0448 72.5356 67.9169 72.5356 67.9169L82.8408 68.794Z" fill="#263238"/>
<path opacity="0.2" d="M77.3515 73.05L74.3484 77.7836C75.2527 83.3963 75.8266 89.0571 76.0672 94.7371C80.288 87.1805 78.3068 77.0475 77.3515 73.05Z" fill="black"/>
<path d="M75.1197 135.057L68.0486 134.865L68.4793 132.591L75.7853 132.634L75.1197 135.057Z" fill="#51398E"/>
<path d="M79.7633 68.5708C79.7633 68.5708 77.4141 91.5695 72.0462 104.083C67.7041 114.184 57.3519 130.343 57.3519 130.343L53.2173 127.923C53.2173 127.923 59.8734 109.956 63.1584 103.222C71.1731 86.7105 63.7183 73.4649 68.7691 67.5919L79.7633 68.5708Z" fill="#263238"/>
<path d="M57.8022 130.695L52.5282 127.802L53.3857 125.547L59.0042 128.718L57.8022 130.695Z" fill="#51398E"/>
<path d="M68.6281 66.7345L67.8842 67.9404C67.8293 68.0305 67.9351 68.144 68.0995 68.1558L82.8564 69.4322C82.9817 69.4322 83.0952 69.3891 83.107 69.3108L83.3458 68.0618C83.3458 67.9756 83.2558 67.8934 83.1187 67.8817L68.8669 66.6483C68.8231 66.6417 68.7783 66.6461 68.7366 66.6611C68.6949 66.6762 68.6576 66.7014 68.6281 66.7345Z" fill="#51398E"/>
<path d="M70.4057 68.4924L70.0142 68.4611C69.9398 68.4611 69.885 68.4102 69.8928 68.3632L70.2139 66.7423C70.2139 66.6914 70.2961 66.6601 70.3705 66.6679L70.762 66.6992C70.8403 66.6992 70.8952 66.7501 70.8834 66.7971L70.5663 68.418C70.5506 68.465 70.4762 68.5003 70.4057 68.4924Z" fill="#263238"/>
<path d="M81.772 69.4752L81.3805 69.4439C81.3022 69.4439 81.2473 69.393 81.2591 69.346L81.5802 67.7251C81.5802 67.6781 81.6585 67.6429 81.7329 67.6507L82.1244 67.682C82.1988 67.682 82.2536 67.7329 82.2458 67.7799L81.9247 69.4008C81.9169 69.4557 81.8307 69.4831 81.772 69.4752Z" fill="#263238"/>
<path d="M76.0868 68.9858L75.6953 68.9506C75.6209 68.9506 75.5661 68.8997 75.5739 68.8527L75.895 67.2317C75.895 67.1848 75.9733 67.1495 76.0516 67.1573L76.4431 67.1926C76.5175 67.1926 76.5723 67.2435 76.5645 67.2905L76.2434 68.9114C76.2356 68.9584 76.1651 68.9897 76.0868 68.9858Z" fill="#263238"/>
<path d="M80.3428 36.2576C80.3036 36.5355 80.4211 36.7822 80.6012 36.8057C80.7813 36.8292 80.9614 36.6256 80.9927 36.3476C81.0241 36.0696 80.9105 35.8229 80.7304 35.7995C80.5503 35.776 80.378 35.9796 80.3428 36.2576Z" fill="#263238"/>
<path d="M83.4829 36.6803C83.4477 36.9583 83.5652 37.205 83.7453 37.2285C83.9254 37.252 84.1055 37.0484 84.1368 36.7704C84.1681 36.4924 84.0585 36.2457 83.8784 36.2222C83.6983 36.1988 83.5221 36.4023 83.4829 36.6803Z" fill="#263238"/>
<path d="M83.7884 36.2262L84.4853 36.1244C84.4853 36.1244 84.0781 36.5981 83.7884 36.2262Z" fill="#263238"/>
<path d="M82.2496 36.9858C82.4128 37.6525 82.6657 38.2939 83.0013 38.8926C82.8464 38.9749 82.6755 39.0225 82.5003 39.032C82.3252 39.0414 82.1501 39.0126 81.9872 38.9474L82.2496 36.9858Z" fill="#ED893E"/>
<path d="M80.3585 39.7773C79.8078 39.5979 79.3459 39.2158 79.0665 38.7084C79.0595 38.6922 79.0588 38.674 79.0646 38.6573C79.0704 38.6406 79.0822 38.6268 79.0978 38.6184C79.1144 38.6102 79.1336 38.6089 79.1512 38.6148C79.1688 38.6206 79.1834 38.6332 79.1917 38.6497C79.3657 38.9548 79.6092 39.2144 79.9024 39.4077C80.1957 39.6009 80.5303 39.7222 80.8793 39.7617C80.8969 39.7617 80.9138 39.7687 80.9263 39.7812C80.9388 39.7936 80.9458 39.8106 80.9458 39.8282C80.9458 39.8459 80.9388 39.8628 80.9263 39.8753C80.9138 39.8878 80.8969 39.8948 80.8793 39.8948C80.7018 39.8752 80.5272 39.8358 80.3585 39.7773Z" fill="#263238"/>
<path d="M78.9138 34.6483C78.891 34.6389 78.8708 34.6241 78.855 34.6053C78.8421 34.5928 78.8319 34.5779 78.8248 34.5615C78.8178 34.545 78.8142 34.5272 78.8142 34.5093C78.8142 34.4914 78.8178 34.4737 78.8248 34.4572C78.8319 34.4407 78.8421 34.4258 78.855 34.4134C79.0469 34.2418 79.2775 34.1194 79.5271 34.0567C79.7768 33.9939 80.0379 33.9927 80.288 34.0532C80.3051 34.0581 80.3211 34.0664 80.3349 34.0776C80.3488 34.0888 80.3602 34.1027 80.3686 34.1184C80.377 34.134 80.3822 34.1513 80.3838 34.169C80.3855 34.1867 80.3835 34.2046 80.3781 34.2216C80.3681 34.2562 80.3448 34.2856 80.3132 34.3032C80.2817 34.3208 80.2445 34.3252 80.2097 34.3155C80.0038 34.2697 79.7898 34.2735 79.5856 34.3266C79.3814 34.3797 79.1927 34.4806 79.0351 34.6209C79.0181 34.634 78.9984 34.6432 78.9774 34.6479C78.9565 34.6527 78.9348 34.6528 78.9138 34.6483Z" fill="#263238"/>
<path d="M84.8023 35.4823C84.7819 35.4743 84.7632 35.4623 84.7475 35.447C84.6103 35.286 84.437 35.1595 84.2418 35.0778C84.0466 34.9962 83.8348 34.9617 83.6238 34.9772C83.606 34.9812 83.5875 34.9813 83.5696 34.9776C83.5517 34.9739 83.5347 34.9664 83.5199 34.9557C83.5051 34.9449 83.4928 34.9312 83.4837 34.9153C83.4746 34.8995 83.469 34.8818 83.4672 34.8636C83.4615 34.8278 83.4703 34.7912 83.4916 34.7619C83.5129 34.7325 83.5449 34.7128 83.5807 34.707C83.8363 34.684 84.0937 34.7225 84.3314 34.8192C84.5691 34.9159 84.7803 35.0681 84.9472 35.263C84.9662 35.2856 84.9774 35.3138 84.9791 35.3433C84.9808 35.3728 84.9729 35.4021 84.9566 35.4267C84.9403 35.4514 84.9165 35.4701 84.8887 35.4801C84.8609 35.4901 84.8306 35.4909 84.8023 35.4823Z" fill="#263238"/>
<path d="M87.8995 65.0235C88.1529 64.2337 88.5595 63.5016 89.0959 62.8689C89.6323 62.2363 90.2881 61.7155 91.0258 61.3363C91.7635 60.9571 92.5686 60.7269 93.3953 60.6589C94.222 60.5908 95.0539 60.6863 95.8437 60.9398C96.6334 61.1932 97.3655 61.5998 97.9982 62.1362C98.6308 62.6726 99.1516 63.3284 99.5308 64.0661C99.91 64.8038 100.14 65.609 100.208 66.4356C100.276 67.2623 100.181 68.0942 99.9274 68.884L97.492 76.5032L85.4641 72.6388L87.8995 65.0235Z" fill="#51398E"/>
<path opacity="0.3" d="M87.8995 65.0235C88.1529 64.2337 88.5595 63.5016 89.0959 62.8689C89.6323 62.2363 90.2881 61.7155 91.0258 61.3363C91.7635 60.9571 92.5686 60.7269 93.3953 60.6589C94.222 60.5908 95.0539 60.6863 95.8437 60.9398C96.6334 61.1932 97.3655 61.5998 97.9982 62.1362C98.6308 62.6726 99.1516 63.3284 99.5308 64.0661C99.91 64.8038 100.14 65.609 100.208 66.4356C100.276 67.2623 100.181 68.0942 99.9274 68.884L97.492 76.5032L85.4641 72.6388L87.8995 65.0235Z" fill="black"/>
<path d="M76.0321 61.21L73.8317 68.0618C73.7994 68.1603 73.787 68.2641 73.7952 68.3674C73.8034 68.4706 73.832 68.5713 73.8794 68.6634C73.9267 68.7555 73.9918 68.8373 74.071 68.9041C74.1502 68.9709 74.2419 69.0213 74.3407 69.0524L85.4602 72.6232L87.9034 65.0196C88.416 63.4261 89.5403 62.1013 91.0292 61.3363C92.518 60.5713 94.2497 60.4287 95.8437 60.9398L83.9763 57.1263C82.3813 56.6163 80.6491 56.7599 79.1598 57.5255C77.6705 58.291 76.5456 59.6161 76.0321 61.21Z" fill="#51398E"/>
<path d="M81.999 66.4055L85.0647 56.8638C85.0752 56.8296 85.0783 56.7935 85.0737 56.7579C85.0691 56.7224 85.0569 56.6882 85.038 56.6578C85.0191 56.6274 84.9938 56.6014 84.964 56.5815C84.9341 56.5617 84.9004 56.5485 84.865 56.5428L81.7328 56.0807L81.3412 57.318L83.6239 58.0502L81.0397 66.0923L81.999 66.4055Z" fill="#263238"/>
<path d="M80.3702 65.8809C80.2994 66.102 80.2957 66.3392 80.3597 66.5624C80.4236 66.7856 80.5522 66.9848 80.7293 67.135C80.9064 67.2851 81.124 67.3794 81.3547 67.4059C81.5853 67.4324 81.8186 67.39 82.0252 67.284C82.2318 67.178 82.4023 67.0131 82.5152 66.8103C82.6281 66.6074 82.6784 66.3757 82.6596 66.1442C82.6409 65.9128 82.554 65.6922 82.41 65.5101C82.2659 65.328 82.0711 65.1928 81.8502 65.1213C81.7031 65.0738 81.5482 65.0558 81.3941 65.0682C81.2401 65.0807 81.09 65.1234 80.9525 65.194C80.8151 65.2645 80.6928 65.3615 80.5929 65.4794C80.493 65.5973 80.4173 65.7337 80.3702 65.8809Z" fill="#263238"/>
<path d="M86.0396 73.7625L101.466 78.7154C101.522 78.7337 101.581 78.7406 101.64 78.7359C101.699 78.7312 101.756 78.7149 101.808 78.688C101.861 78.6611 101.907 78.624 101.945 78.579C101.983 78.534 102.012 78.4819 102.03 78.4257C102.049 78.3697 102.056 78.3105 102.052 78.2515C102.047 78.1926 102.031 78.1352 102.004 78.0826C101.977 78.0301 101.94 77.9835 101.894 77.9456C101.849 77.9076 101.797 77.8792 101.74 77.8619L85.4601 72.6349C85.3875 72.8613 85.4077 73.1072 85.5164 73.3187C85.625 73.5301 85.8132 73.6898 86.0396 73.7625Z" fill="#51398E"/>
<path opacity="0.2" d="M86.0396 73.7625L92.3433 75.7867C92.3996 75.805 92.4589 75.8121 92.518 75.8074C92.577 75.8028 92.6345 75.7865 92.6872 75.7596C92.74 75.7327 92.7869 75.6956 92.8253 75.6506C92.8637 75.6055 92.8928 75.5533 92.911 75.497C92.9468 75.3838 92.9364 75.2611 92.8822 75.1555C92.8279 75.0499 92.7341 74.97 92.6213 74.9332L85.4601 72.6349C85.3875 72.8613 85.4077 73.1072 85.5164 73.3187C85.625 73.5301 85.8132 73.6898 86.0396 73.7625Z" fill="black"/>
<path d="M69.7479 51.8758L69.5326 52.1147L69.2898 52.3926C69.1254 52.5806 68.9609 52.7842 68.8043 52.976C68.4832 53.3676 68.1778 53.7865 67.892 54.2094C66.709 55.8839 65.7777 57.7228 65.1278 59.6673C64.9712 60.1528 64.8263 60.6383 64.7128 61.1356C64.6736 61.2805 64.6697 61.3392 64.6501 61.4058C64.6471 61.4631 64.6471 61.5206 64.6501 61.578C64.6438 61.6392 64.6438 61.7009 64.6501 61.762C64.6501 61.8325 64.7833 61.997 65.1043 62.1536C65.4903 62.3272 65.8969 62.4509 66.3141 62.5216C67.3212 62.6817 68.3409 62.7486 69.3603 62.7213C70.4253 62.7213 71.5059 62.6273 72.5865 62.5138C73.6672 62.4002 74.7635 62.2593 75.8245 62.0988L76.2513 63.7941C74.066 64.5054 71.8174 65.0049 69.5365 65.2859C68.3356 65.4421 67.1213 65.4684 65.9148 65.3642C65.225 65.2994 64.5476 65.1386 63.9023 64.8865C63.5152 64.7313 63.1515 64.5231 62.8217 64.2679C62.4332 63.9633 62.113 63.5804 61.882 63.1442C61.4843 62.3258 61.3779 61.3962 61.5805 60.5091C61.6745 59.9101 61.8115 59.3345 61.972 58.7316C62.2793 57.5741 62.6881 56.4461 63.1936 55.3605C63.7005 54.2724 64.2909 53.2251 64.9594 52.2282C65.2962 51.7309 65.6564 51.2494 66.0322 50.7756C66.2241 50.5407 66.4238 50.3097 66.6195 50.0787L66.9367 49.738C67.0502 49.6167 67.1403 49.5188 67.2969 49.37L69.7479 51.8758Z" fill="#FFB573"/>
<path d="M74.971 62.4589L77.7117 61.0063L77.8331 63.9507C77.8331 63.9507 75.8754 64.7612 74.7556 63.8685L74.971 62.4589Z" fill="#FFB573"/>
<path d="M79.9709 60.7831L79.5598 63.4965L77.837 63.9506L77.7156 61.0063L79.9709 60.7831Z" fill="#FFB573"/>
<path d="M68.0916 46.3552C66.365 46.6605 63.9492 51.6095 63.9492 51.6095L68.2992 55.5249C68.2992 55.5249 71.7564 51.7505 71.5724 49.5031C71.4158 47.6041 70.2882 45.9636 68.0916 46.3552Z" fill="#51398E"/>
<path opacity="0.7" d="M68.0916 46.3552C66.365 46.6605 63.9492 51.6095 63.9492 51.6095L68.2992 55.5249C68.2992 55.5249 71.7564 51.7505 71.5724 49.5031C71.4158 47.6041 70.2882 45.9636 68.0916 46.3552Z" fill="white"/>
<path d="M56.4396 134.474C56.3941 134.48 56.3481 134.48 56.3026 134.474C55.868 134.45 55.406 133.785 55.1671 133.393C55.1597 133.382 55.1558 133.369 55.1558 133.356C55.1558 133.343 55.1597 133.33 55.1671 133.319C55.1743 133.307 55.185 133.298 55.1978 133.293C55.2105 133.288 55.2245 133.288 55.2376 133.291C55.3786 133.319 56.5962 133.593 56.7489 134.004C56.7648 134.049 56.7688 134.097 56.7605 134.143C56.7523 134.19 56.7321 134.234 56.7019 134.27C56.6393 134.365 56.5471 134.437 56.4396 134.474ZM55.3707 133.479C55.7192 134.016 56.0637 134.337 56.3104 134.352C56.3666 134.353 56.4221 134.34 56.4715 134.313C56.5209 134.286 56.5625 134.247 56.5923 134.2C56.6092 134.182 56.6208 134.161 56.6256 134.137C56.6305 134.114 56.6284 134.089 56.6197 134.067C56.5258 133.816 55.7936 133.581 55.3707 133.479Z" fill="#51398E"/>
<path d="M56.3144 133.393C55.9534 133.492 55.5745 133.509 55.2064 133.44C55.1948 133.436 55.1845 133.43 55.1762 133.421C55.168 133.412 55.1622 133.401 55.1594 133.389C55.1539 133.379 55.1511 133.368 55.1511 133.356C55.1511 133.344 55.1539 133.333 55.1594 133.323C55.1907 133.295 55.9033 132.598 56.4006 132.634C56.462 132.634 56.5224 132.65 56.5768 132.678C56.6312 132.707 56.6782 132.748 56.7138 132.798C56.7566 132.844 56.7829 132.903 56.7885 132.965C56.7942 133.027 56.7789 133.09 56.7451 133.143C56.6327 133.271 56.4815 133.359 56.3144 133.393ZM55.3708 133.33C55.7624 133.385 56.4945 133.287 56.6472 133.064C56.6707 133.029 56.6903 132.974 56.6198 132.884C56.5962 132.85 56.5646 132.822 56.5279 132.802C56.4911 132.782 56.4501 132.771 56.4084 132.771C56.0678 132.747 55.5744 133.146 55.3708 133.33Z" fill="#51398E"/>
<path d="M74.1174 139.301C73.7388 139.292 73.3622 139.244 72.9937 139.157C72.9807 139.152 72.9696 139.143 72.9617 139.132C72.9538 139.121 72.9496 139.108 72.9496 139.094C72.9496 139.08 72.9538 139.067 72.9617 139.056C72.9696 139.044 72.9807 139.036 72.9937 139.031C73.162 138.949 74.6616 138.248 75.0375 138.514C75.0714 138.538 75.0984 138.569 75.1156 138.607C75.1328 138.644 75.1396 138.685 75.1353 138.726C75.1335 138.802 75.1143 138.877 75.079 138.945C75.0437 139.013 74.9933 139.072 74.9317 139.117C74.6861 139.262 74.4014 139.327 74.1174 139.301ZM73.2286 139.066C73.671 139.149 74.4932 139.258 74.8339 139.004C74.8775 138.969 74.9134 138.926 74.939 138.877C74.9647 138.828 74.9795 138.773 74.9826 138.718C74.9861 138.701 74.9842 138.683 74.9772 138.667C74.9702 138.651 74.9584 138.637 74.9435 138.628C74.7321 138.483 73.8472 138.792 73.2168 139.066H73.2286Z" fill="#51398E"/>
<path d="M73.0054 139.149C72.9913 139.153 72.9764 139.153 72.9623 139.149C72.9529 139.14 72.9458 139.129 72.9417 139.116C72.9376 139.104 72.9366 139.091 72.9388 139.078C72.9388 139.016 73.2951 137.539 74.1134 137.633C74.317 137.661 74.3719 137.759 74.3836 137.841C74.4345 138.232 73.4909 138.972 73.0406 139.16L73.0054 139.149ZM74.0312 137.751C73.5144 137.751 73.2129 138.612 73.1111 138.957C73.6005 138.698 74.2857 138.084 74.2427 137.845C74.2427 137.825 74.2427 137.77 74.09 137.755L74.0312 137.751Z" fill="#51398E"/>
<path d="M80.6561 35.8033L81.3491 35.7015C81.3491 35.7015 80.938 36.1752 80.6561 35.8033Z" fill="#263238"/>
<path d="M104.747 68.5583L89.5869 71.6906C89.3276 71.7393 89.0596 71.6846 88.8401 71.5383C88.6206 71.3919 88.467 71.1655 88.4123 70.9075L87.7036 67.6186L87.4491 66.4049L87.8954 65.0188C87.9576 64.8199 88.0321 64.625 88.1186 64.4354C88.1284 64.4053 88.1415 64.3764 88.1578 64.3493C88.4079 63.7789 88.7446 63.2506 89.1562 62.7832L89.9393 62.6187L102.938 59.921C103.197 59.8724 103.465 59.927 103.685 60.0733C103.904 60.2197 104.058 60.4461 104.113 60.7041L105.495 67.3602C105.551 67.618 105.505 67.8877 105.365 68.1116C105.225 68.3356 105.004 68.4959 104.747 68.5583Z" fill="#51398E"/>
<path opacity="0.3" d="M103.995 60.3525L96.6813 67.7917L95.1152 67.1574L89.0229 64.6868L88.1655 64.3383C88.4156 63.7679 88.7523 63.2397 89.1639 62.7722L89.9469 62.6078L102.946 59.9101C103.145 59.8703 103.351 59.8912 103.539 59.9701C103.726 60.049 103.885 60.1822 103.995 60.3525Z" fill="black"/>
<path d="M103.995 60.3525L95.1152 67.1691L94.5358 67.6154L88.9564 64.8473L88.1263 64.4557C88.1361 64.4256 88.1492 64.3967 88.1655 64.3696C88.4156 63.7992 88.7524 63.2709 89.1639 62.8035L89.947 62.639L102.946 59.9414C103.142 59.8984 103.346 59.9146 103.533 59.9877C103.72 60.0609 103.881 60.1878 103.995 60.3525Z" fill="#51398E"/>
<path opacity="0.2" d="M103.995 60.3525L95.1152 67.1691L94.5358 67.6154L88.9564 64.8473L88.1263 64.4557C88.1361 64.4256 88.1492 64.3967 88.1655 64.3696C88.4156 63.7992 88.7524 63.2709 89.1639 62.8035L89.947 62.639L102.946 59.9414C103.142 59.8984 103.346 59.9146 103.533 59.9877C103.72 60.0609 103.881 60.1878 103.995 60.3525Z" fill="white"/>
<path d="M123.255 82.2901L118.635 87.2704C118.452 87.4646 118.201 87.5789 117.935 87.5884C117.668 87.5979 117.409 87.5019 117.213 87.3213L105.882 76.7695C105.687 76.5877 105.572 76.3359 105.563 76.0694C105.553 75.8029 105.65 75.5435 105.832 75.3482L110.467 70.3679C110.557 70.2703 110.665 70.1914 110.786 70.136C110.906 70.0805 111.037 70.0495 111.169 70.0448C111.302 70.04 111.434 70.0617 111.558 70.1084C111.682 70.1551 111.796 70.226 111.892 70.317L123.22 80.8689C123.366 81.0054 123.469 81.1828 123.514 81.3781C123.56 81.5734 123.546 81.7779 123.474 81.9652C123.425 82.0879 123.35 82.1987 123.255 82.2901Z" fill="#51398E"/>
<path opacity="0.3" d="M123.458 81.9847L113.153 80.305L110.761 70.1252C110.944 70.0411 111.147 70.0129 111.346 70.0443C111.544 70.0756 111.729 70.1651 111.877 70.3013L123.204 80.8532C123.358 80.9925 123.465 81.176 123.511 81.3786C123.556 81.5812 123.538 81.7929 123.458 81.9847Z" fill="black"/>
<path d="M123.458 81.9847L113.423 78.9934L110.761 70.1604C110.944 70.0763 111.147 70.0481 111.346 70.0795C111.544 70.1108 111.729 70.2003 111.877 70.3366L123.204 80.8884C123.351 81.025 123.453 81.2023 123.499 81.3976C123.544 81.593 123.53 81.7974 123.458 81.9847Z" fill="#51398E"/>
<path opacity="0.2" d="M123.458 81.9847L113.423 78.9934L110.761 70.1604C110.944 70.0763 111.147 70.0481 111.346 70.0795C111.544 70.1108 111.729 70.2003 111.877 70.3366L123.204 80.8884C123.351 81.025 123.453 81.2023 123.499 81.3976C123.544 81.593 123.53 81.7974 123.458 81.9847Z" fill="white"/>
<path d="M127.284 90.4928L132.374 96.4363C132.471 96.55 132.544 96.6823 132.588 96.8252C132.633 96.9681 132.647 97.1185 132.632 97.2673C132.616 97.4161 132.57 97.5601 132.497 97.6905C132.423 97.821 132.324 97.9351 132.205 98.0259L121.148 106.64C120.963 106.752 120.742 106.79 120.529 106.748C120.316 106.706 120.127 106.587 119.997 106.413L116.015 101.871C115.94 101.783 115.879 101.686 115.831 101.581C115.757 101.437 115.727 101.275 115.743 101.114C115.758 100.952 115.821 100.799 115.921 100.673L125.71 90.4497C125.863 90.2842 126.064 90.1721 126.286 90.1298C126.507 90.0875 126.736 90.1173 126.939 90.2148C127.071 90.2848 127.187 90.3791 127.284 90.4928Z" fill="#51398E"/>
<path opacity="0.3" d="M126.939 90.2265L124.508 101.041L115.847 101.593C115.773 101.449 115.742 101.286 115.758 101.125C115.774 100.964 115.836 100.811 115.937 100.684L125.725 90.4615C125.877 90.2994 126.076 90.1894 126.294 90.1472C126.512 90.105 126.738 90.1328 126.939 90.2265Z" fill="black"/>
<path d="M126.939 90.2265L122.863 101.702L115.839 101.593C115.765 101.449 115.734 101.286 115.75 101.125C115.766 100.964 115.828 100.811 115.929 100.684L125.718 90.4614C125.87 90.2976 126.07 90.1866 126.29 90.1443C126.51 90.1021 126.737 90.1309 126.939 90.2265Z" fill="#51398E"/>
<path opacity="0.2" d="M126.939 90.2265L122.863 101.702L115.839 101.593C115.765 101.449 115.734 101.286 115.75 101.125C115.766 100.964 115.828 100.811 115.929 100.684L125.718 90.4614C125.87 90.2976 126.07 90.1866 126.29 90.1443C126.51 90.1021 126.737 90.1309 126.939 90.2265Z" fill="white"/>
</svg>
