<svg width="280" height="219" viewBox="0 0 280 219" fill="none" xmlns="http://www.w3.org/2000/svg">
<path d="M279.155 193.296H0V193.436H279.155V193.296Z" fill="#EBEBEB"/>
<path d="M251.184 202.279H232.693V202.419H251.184V202.279Z" fill="#EBEBEB"/>
<path d="M152.541 200.532H145.345V200.671H152.541V200.532Z" fill="#EBEBEB"/>
<path d="M195.224 201.124H180.072V201.263H195.224V201.124Z" fill="#EBEBEB"/>
<path d="M232.134 197.098H200.807V197.238H232.134V197.098Z" fill="#EBEBEB"/>
<path d="M44.1009 203.558H29.2889V203.697H44.1009V203.558Z" fill="#EBEBEB"/>
<path d="M61.911 203.558H49.0698V203.697H61.911V203.558Z" fill="#EBEBEB"/>
<path d="M107.09 200.465H73.1387V200.604H107.09V200.465Z" fill="#EBEBEB"/>
<path d="M132.32 168.396H24.5154C23.6708 168.394 22.8614 168.058 22.2648 167.46C21.6681 166.862 21.333 166.052 21.333 165.208V13.6653C21.3404 12.8257 21.6787 12.0228 22.2746 11.4311C22.8704 10.8394 23.6757 10.5067 24.5154 10.5053H132.32C133.165 10.5053 133.976 10.8412 134.574 11.439C135.172 12.0369 135.508 12.8478 135.508 13.6933V165.208C135.508 166.053 135.172 166.864 134.574 167.462C133.976 168.06 133.165 168.396 132.32 168.396ZM24.5154 10.617C23.7079 10.6185 22.9339 10.9403 22.3635 11.5118C21.793 12.0833 21.4726 12.8578 21.4726 13.6653V165.208C21.4726 166.015 21.793 166.79 22.3635 167.361C22.9339 167.933 23.7079 168.254 24.5154 168.256H132.32C133.128 168.254 133.902 167.933 134.473 167.361C135.045 166.79 135.366 166.016 135.368 165.208V13.6653C135.366 12.8573 135.045 12.0828 134.473 11.5115C133.902 10.9401 133.128 10.6184 132.32 10.617H24.5154Z" fill="#EBEBEB"/>
<path d="M253.088 168.396H145.278C144.433 168.394 143.623 168.058 143.025 167.46C142.428 166.863 142.091 166.053 142.09 165.208V13.6653C142.099 12.8252 142.438 12.0223 143.035 11.4308C143.632 10.8392 144.438 10.5067 145.278 10.5053H253.088C253.926 10.5082 254.73 10.8416 255.325 11.4331C255.92 12.0246 256.257 12.8266 256.264 13.6653V165.208C256.264 166.051 255.93 166.86 255.335 167.458C254.739 168.055 253.931 168.393 253.088 168.396ZM145.278 10.617C144.47 10.6184 143.695 10.9401 143.124 11.5115C142.553 12.0828 142.231 12.8573 142.23 13.6653V165.208C142.231 166.016 142.553 166.79 143.124 167.361C143.695 167.933 144.47 168.254 145.278 168.256H253.088C253.896 168.254 254.67 167.933 255.242 167.361C255.813 166.79 256.135 166.016 256.136 165.208V13.6653C256.135 12.8573 255.813 12.0828 255.242 11.5115C254.67 10.9401 253.896 10.6184 253.088 10.617H145.278Z" fill="#EBEBEB"/>
<path d="M36.1059 160.133C35.3941 160.131 34.7119 159.848 34.2086 159.344C33.7053 158.841 33.4219 158.159 33.4204 157.447V34.2782C33.4234 33.5673 33.7074 32.8866 34.2106 32.3845C34.7137 31.8824 35.3951 31.5997 36.1059 31.5983C36.8162 31.5997 37.497 31.8826 37.9992 32.3848C38.5015 32.8871 38.7843 33.5679 38.7858 34.2782V157.447C38.7843 158.158 38.5017 158.839 37.9996 159.342C37.4975 159.846 36.8167 160.13 36.1059 160.133Z" fill="#F0F0F0"/>
<path d="M47.2721 160.133C46.5604 160.131 45.8782 159.848 45.3749 159.344C44.8716 158.841 44.5881 158.159 44.5867 157.447V34.2782C44.5896 33.5673 44.8737 32.8866 45.3768 32.3845C45.88 31.8824 46.5613 31.5997 47.2721 31.5983C47.9824 31.5997 48.6632 31.8826 49.1655 32.3848C49.6677 32.8871 49.9506 33.5679 49.952 34.2782V157.447C49.9506 158.158 49.6679 158.839 49.1658 159.342C48.6637 159.846 47.983 160.13 47.2721 160.133Z" fill="#F0F0F0"/>
<path d="M231.883 160.133C231.172 160.13 230.491 159.846 229.989 159.342C229.487 158.839 229.205 158.158 229.203 157.447V34.2782C229.205 33.5679 229.487 32.8871 229.99 32.3848C230.492 31.8826 231.173 31.5997 231.883 31.5983C232.594 31.5997 233.275 31.8824 233.778 32.3845C234.281 32.8866 234.566 33.5673 234.568 34.2782V157.447C234.567 158.159 234.284 158.841 233.78 159.344C233.277 159.848 232.595 160.131 231.883 160.133Z" fill="#F0F0F0"/>
<path d="M243.049 160.133C242.338 160.13 241.658 159.846 241.156 159.342C240.653 158.839 240.371 158.158 240.369 157.447V34.2782C240.371 33.5679 240.654 32.8871 241.156 32.3848C241.658 31.8826 242.339 31.5997 243.049 31.5983C243.76 31.5997 244.441 31.8824 244.945 32.3845C245.448 32.8866 245.732 33.5673 245.735 34.2782V157.447C245.733 158.159 245.45 158.841 244.947 159.344C244.443 159.848 243.761 160.131 243.049 160.133Z" fill="#F0F0F0"/>
<path d="M45.5525 178.59H45.212C44.8666 178.59 44.5867 178.87 44.5867 179.216V188.573C44.5867 188.918 44.8666 189.198 45.212 189.198H45.5525C45.8979 189.198 46.1779 188.918 46.1779 188.573V179.216C46.1779 178.87 45.8979 178.59 45.5525 178.59Z" fill="#F0F0F0"/>
<path d="M48.2827 178.59H47.9421C47.5967 178.59 47.3168 178.87 47.3168 179.216V188.573C47.3168 188.918 47.5967 189.198 47.9421 189.198H48.2827C48.628 189.198 48.908 188.918 48.908 188.573V179.216C48.908 178.87 48.628 178.59 48.2827 178.59Z" fill="#F0F0F0"/>
<path d="M51.0071 178.59H50.6666C50.3212 178.59 50.0413 178.87 50.0413 179.216V188.573C50.0413 188.918 50.3212 189.198 50.6666 189.198H51.0071C51.3525 189.198 51.6324 188.918 51.6324 188.573V179.216C51.6324 178.87 51.3525 178.59 51.0071 178.59Z" fill="#F0F0F0"/>
<path d="M53.7374 178.59H53.3968C53.0514 178.59 52.7715 178.87 52.7715 179.216V188.573C52.7715 188.918 53.0514 189.198 53.3968 189.198H53.7374C54.0827 189.198 54.3627 188.918 54.3627 188.573V179.216C54.3627 178.87 54.0827 178.59 53.7374 178.59Z" fill="#F0F0F0"/>
<path d="M56.4675 178.59H56.1269C55.7815 178.59 55.5016 178.87 55.5016 179.216V188.573C55.5016 188.918 55.7815 189.198 56.1269 189.198H56.4675C56.8128 189.198 57.0928 188.918 57.0928 188.573V179.216C57.0928 178.87 56.8128 178.59 56.4675 178.59Z" fill="#F0F0F0"/>
<path d="M59.1921 178.59H58.8515C58.5062 178.59 58.2262 178.87 58.2262 179.216V188.573C58.2262 188.918 58.5062 189.198 58.8515 189.198H59.1921C59.5374 189.198 59.8174 188.918 59.8174 188.573V179.216C59.8174 178.87 59.5374 178.59 59.1921 178.59Z" fill="#F0F0F0"/>
<path d="M61.9222 178.59H61.5816C61.2363 178.59 60.9563 178.87 60.9563 179.216V188.573C60.9563 188.918 61.2363 189.198 61.5816 189.198H61.9222C62.2675 189.198 62.5475 188.918 62.5475 188.573V179.216C62.5475 178.87 62.2675 178.59 61.9222 178.59Z" fill="#F0F0F0"/>
<path d="M120.182 178.59H119.841C119.496 178.59 119.216 178.87 119.216 179.216V188.573C119.216 188.918 119.496 189.198 119.841 189.198H120.182C120.527 189.198 120.807 188.918 120.807 188.573V179.216C120.807 178.87 120.527 178.59 120.182 178.59Z" fill="#F0F0F0"/>
<path d="M122.912 178.59H122.571C122.226 178.59 121.946 178.87 121.946 179.216V188.573C121.946 188.918 122.226 189.198 122.571 189.198H122.912C123.257 189.198 123.537 188.918 123.537 188.573V179.216C123.537 178.87 123.257 178.59 122.912 178.59Z" fill="#F0F0F0"/>
<path d="M125.642 178.59H125.302C124.956 178.59 124.676 178.87 124.676 179.216V188.573C124.676 188.918 124.956 189.198 125.302 189.198H125.642C125.987 189.198 126.267 188.918 126.267 188.573V179.216C126.267 178.87 125.987 178.59 125.642 178.59Z" fill="#F0F0F0"/>
<path d="M128.367 178.59H128.026C127.681 178.59 127.401 178.87 127.401 179.216V188.573C127.401 188.918 127.681 189.198 128.026 189.198H128.367C128.712 189.198 128.992 188.918 128.992 188.573V179.216C128.992 178.87 128.712 178.59 128.367 178.59Z" fill="#F0F0F0"/>
<path d="M131.097 178.59H130.756C130.411 178.59 130.131 178.87 130.131 179.216V188.573C130.131 188.918 130.411 189.198 130.756 189.198H131.097C131.442 189.198 131.722 188.918 131.722 188.573V179.216C131.722 178.87 131.442 178.59 131.097 178.59Z" fill="#F0F0F0"/>
<path d="M133.827 178.59H133.486C133.141 178.59 132.861 178.87 132.861 179.216V188.573C132.861 188.918 133.141 189.198 133.486 189.198H133.827C134.172 189.198 134.452 188.918 134.452 188.573V179.216C134.452 178.87 134.172 178.59 133.827 178.59Z" fill="#F0F0F0"/>
<path d="M136.552 178.59H136.211C135.866 178.59 135.586 178.87 135.586 179.216V188.573C135.586 188.918 135.866 189.198 136.211 189.198H136.552C136.897 189.198 137.177 188.918 137.177 188.573V179.216C137.177 178.87 136.897 178.59 136.552 178.59Z" fill="#F0F0F0"/>
<path d="M163.797 185.184C163.797 180.717 162.513 177.066 160.927 177.066C159.342 177.066 158.052 180.701 158.052 185.184C158.052 189.667 159.336 193.296 160.927 193.296C162.519 193.296 163.797 189.662 163.797 185.184Z" fill="#EBEBEB"/>
<path d="M250.212 177.066H160.927C162.513 177.066 163.797 180.701 163.797 185.184C163.797 189.667 162.513 193.296 160.927 193.296H250.212C251.798 193.296 253.088 189.662 253.088 185.184C253.088 180.706 251.798 177.066 250.212 177.066Z" fill="#F5F5F5"/>
<path d="M139.578 218.509C199.363 218.509 247.828 215.68 247.828 212.189C247.828 208.699 199.363 205.869 139.578 205.869C79.7923 205.869 31.3268 208.699 31.3268 212.189C31.3268 215.68 79.7923 218.509 139.578 218.509Z" fill="#F5F5F5"/>
<path d="M58.8682 28.7453H58.3099V43.574H58.8682V28.7453Z" fill="#51398E"/>
<path d="M58.8682 47.538H58.3099V52.3786H58.8682V47.538Z" fill="#51398E"/>
<path d="M213.861 15.9656H66.9638C63.2636 15.9656 60.264 18.9651 60.264 22.6653V98.9194C60.264 102.62 63.2636 105.619 66.9638 105.619H213.861C217.561 105.619 220.561 102.62 220.561 98.9194V22.6653C220.561 18.9651 217.561 15.9656 213.861 15.9656Z" fill="#51398E"/>
<path d="M218.997 105.619H61.8273C60.9639 105.619 60.264 106.319 60.264 107.182V108.941C60.264 109.804 60.9639 110.504 61.8273 110.504H218.997C219.861 110.504 220.561 109.804 220.561 108.941V107.182C220.561 106.319 219.861 105.619 218.997 105.619Z" fill="#263238"/>
<path d="M218.891 98.9193V22.6653C218.891 19.8902 216.642 17.6405 213.866 17.6405L66.9694 17.6405C64.1942 17.6405 61.9446 19.8902 61.9446 22.6653V98.9193C61.9446 101.694 64.1942 103.944 66.9694 103.944L213.866 103.944C216.642 103.944 218.891 101.694 218.891 98.9193Z" fill="white"/>
<path opacity="0.1" d="M218.891 98.9193V22.6653C218.891 19.8902 216.642 17.6405 213.866 17.6405L66.9694 17.6405C64.1942 17.6405 61.9446 19.8902 61.9446 22.6653V98.9193C61.9446 101.694 64.1942 103.944 66.9694 103.944L213.866 103.944C216.642 103.944 218.891 101.694 218.891 98.9193Z" fill="#51398E"/>
<path d="M88.347 43.3004C89.2626 41.5474 91.641 40.012 94.3432 39.3923C96.1856 37.092 99.8761 35.2608 103.712 34.9593C104.748 34.8714 105.792 34.9202 106.816 35.1045C109.462 32.3129 114.146 30.0797 118.993 29.7335C123.738 29.365 127.334 30.8166 128.584 33.2341C129.39 33.0379 130.209 32.9053 131.035 32.8377C134.687 32.553 137.422 33.7422 138.21 35.6739C139.445 35.1164 140.767 34.7765 142.118 34.669C145.825 34.3842 148.298 36.0927 147.634 38.4878C147.456 39.0749 147.156 39.6174 146.752 40.079C152.056 40.5647 156.366 41.8879 153.714 43.5182L79.9556 49.2632C77.9736 45.8073 83.5567 44.1714 88.347 43.3004Z" fill="white"/>
<path opacity="0.3" d="M182.772 52.8221C183.364 49.1758 180.888 45.7401 177.241 45.1483C173.595 44.5564 170.16 47.0325 169.568 50.6787C168.976 54.325 171.452 57.7607 175.098 58.3526C178.744 58.9444 182.18 56.4684 182.772 52.8221Z" fill="#51398E"/>
<path d="M171.245 59.592C171.212 59.3454 171.229 59.0948 171.295 58.855C171.742 57.2526 174.087 55.7955 176.588 55.6056C177.078 55.564 177.571 55.5827 178.056 55.6615C179.726 54.0729 181.899 53.1188 184.198 52.9648C185.317 52.8462 186.449 52.9974 187.497 53.4059C189.32 52.0333 191.498 51.2118 193.773 51.0386C197.681 50.7372 200.249 52.5293 199.551 55.0417C199.551 55.092 199.518 55.1422 199.501 55.1925C199.484 55.2427 199.618 55.1925 199.68 55.1925C201.561 55.0417 202.817 55.9127 202.471 57.1242C202.334 57.5564 202.081 57.9427 201.74 58.2409C203.716 58.5647 204.984 59.1341 203.884 59.8097L166.477 62.7241C165.427 60.8258 168.733 60.0107 171.245 59.592Z" fill="white"/>
<path opacity="0.6" d="M157.566 103.944H133.481L158.538 17.6405H182.623L157.566 103.944Z" fill="white"/>
<path opacity="0.6" d="M129.818 103.944H120.355L145.412 17.6405H154.875L129.818 103.944Z" fill="white"/>
<path opacity="0.6" d="M84.9692 103.944H75.5059L100.557 17.6405H110.021L84.9692 103.944Z" fill="white"/>
<path d="M219.729 41.2738V37.6783L61.107 37.6783V41.2738L219.729 41.2738Z" fill="#51398E"/>
<path opacity="0.2" d="M218.891 78.5634V98.9194C218.891 100.252 218.362 101.53 217.419 102.472C216.477 103.415 215.199 103.944 213.866 103.944H66.9638C65.6311 103.944 64.353 103.415 63.4107 102.472C62.4684 101.53 61.939 100.252 61.939 98.9194V80.456C73.1722 76.5479 79.0121 92.0856 121.678 85.2798C157.846 79.5069 167.778 62.9474 187.899 76.7712C199.35 84.6378 218.891 78.5634 218.891 78.5634Z" fill="#51398E"/>
<path d="M213.827 134.886H65.3223C61.6037 134.886 58.5891 137.9 58.5891 141.619V166.118C58.5891 169.836 61.6037 172.851 65.3223 172.851H213.827C217.546 172.851 220.561 169.836 220.561 166.118V141.619C220.561 137.9 217.546 134.886 213.827 134.886Z" fill="white"/>
<path opacity="0.2" d="M213.827 134.886H65.3223C61.6037 134.886 58.5891 137.9 58.5891 141.619V166.118C58.5891 169.836 61.6037 172.851 65.3223 172.851H213.827C217.546 172.851 220.561 169.836 220.561 166.118V141.619C220.561 137.9 217.546 134.886 213.827 134.886Z" fill="#51398E"/>
<path d="M190.914 210.447H187.375L180.736 161.065H184.27L190.914 210.447Z" fill="#51398E"/>
<path d="M127.004 210.447H130.516L137.657 157.341H134.145L127.004 210.447Z" fill="#51398E"/>
<path d="M132.828 161.098C133.845 161.881 135.075 162.336 136.356 162.405L180.022 164.694C181.589 164.775 183.157 164.545 184.635 164.016C186.113 163.488 187.471 162.672 188.632 161.616C189.793 160.559 190.733 159.283 191.398 157.862C192.062 156.44 192.439 154.9 192.505 153.332L194.688 101.097C194.754 99.5264 194.501 97.9591 193.945 96.4889C193.39 95.0188 192.542 93.6762 191.454 92.5418C190.367 91.4075 189.061 90.5049 187.615 89.8882C186.169 89.2716 184.614 88.9536 183.042 88.9535H169.168C166.962 88.9522 164.842 89.8081 163.256 91.3405C161.669 92.8729 160.74 94.9618 160.665 97.1662L158.99 145.795L135.58 149.899C134.378 150.113 133.264 150.672 132.374 151.507C131.483 152.342 130.854 153.418 130.563 154.604C130.271 155.789 130.33 157.034 130.732 158.187C131.134 159.34 131.862 160.351 132.828 161.098Z" fill="#51398E"/>
<path opacity="0.4" d="M132.828 161.098C133.845 161.881 135.075 162.336 136.356 162.405L180.022 164.694C181.589 164.775 183.157 164.545 184.635 164.016C186.113 163.488 187.471 162.672 188.632 161.616C189.793 160.559 190.733 159.283 191.398 157.862C192.062 156.44 192.439 154.9 192.505 153.332L194.688 101.097C194.754 99.5264 194.501 97.9591 193.945 96.4889C193.39 95.0188 192.542 93.6762 191.454 92.5418C190.367 91.4075 189.061 90.5049 187.615 89.8882C186.169 89.2716 184.614 88.9536 183.042 88.9535H169.168C166.962 88.9522 164.842 89.8081 163.256 91.3405C161.669 92.8729 160.74 94.9618 160.665 97.1662L158.99 145.795L135.58 149.899C134.378 150.113 133.264 150.672 132.374 151.507C131.483 152.342 130.854 153.418 130.563 154.604C130.271 155.789 130.33 157.034 130.732 158.187C131.134 159.34 131.862 160.351 132.828 161.098Z" fill="white"/>
<path d="M130.566 63.2321C126.153 70.1094 124.369 78.3483 125.542 86.4355C126.658 95.2289 136.881 99.3492 145.686 97.0434C154.49 94.7376 160.514 89.1936 159.889 81.3772C159.264 73.5609 152.586 69.8704 152.514 64.0417C152.441 58.2129 146.3 55.8512 143.944 57.3419C141.052 53.4952 133.883 57.8835 130.566 63.2321Z" fill="#263238"/>
<path d="M147.623 97.7469C147.549 97.7587 147.473 97.7407 147.412 97.6967C147.352 97.6527 147.311 97.5864 147.299 97.5124C147.287 97.4384 147.305 97.3626 147.349 97.3019C147.393 97.2412 147.459 97.2004 147.533 97.1886C156.662 94.0564 161.458 87.9374 160.375 80.8245C159.76 76.8437 157.639 74.1248 155.59 71.5119C153.736 69.1446 151.989 66.9114 151.743 64.0584C151.738 63.9847 151.763 63.912 151.811 63.8557C151.858 63.7995 151.926 63.764 152 63.7569C152.037 63.7539 152.074 63.7581 152.109 63.7694C152.144 63.7807 152.176 63.7988 152.204 63.8226C152.232 63.8465 152.255 63.8757 152.272 63.9085C152.289 63.9413 152.299 63.9771 152.301 64.0138C152.53 66.6992 154.228 68.8711 156.025 71.1657C158.024 73.7228 160.291 76.6148 160.927 80.7407C162.077 88.1439 157.142 94.4919 147.734 97.719L147.623 97.7469Z" fill="#263238"/>
<path d="M147.813 102.867C146.864 103.202 146.026 103.47 145.133 103.732C144.239 103.994 143.363 104.229 142.475 104.463C140.689 104.904 138.885 105.306 137.043 105.58C135.167 105.906 133.272 106.117 131.37 106.211C129.302 106.34 127.225 106.222 125.184 105.859L124.927 105.809C124.18 105.669 123.496 105.299 122.97 104.75C122.444 104.202 122.104 103.502 121.996 102.749C121.819 101.485 121.857 100.199 122.108 98.9473C122.302 97.9319 122.569 96.9318 122.906 95.9547C123.524 94.1791 124.27 92.4512 125.14 90.7847C125.983 89.1601 126.887 87.6024 127.853 86.0949C128.819 84.5875 129.824 83.1303 130.957 81.6899C131.276 81.2909 131.726 81.0189 132.227 80.9231C132.729 80.8273 133.248 80.914 133.691 81.1675C134.134 81.421 134.472 81.8247 134.643 82.3055C134.814 82.7863 134.808 83.3125 134.625 83.7891V83.8505C134.017 85.4026 133.369 87.005 132.772 88.5738C132.174 90.1427 131.599 91.7283 131.097 93.2971C130.588 94.8021 130.163 96.3343 129.824 97.8865C129.674 98.5726 129.573 99.2685 129.522 99.969C129.477 100.428 129.506 100.892 129.606 101.342L126.413 98.2326C127.855 98.3189 129.302 98.2647 130.734 98.0707C132.286 97.8809 133.883 97.5906 135.491 97.25C137.099 96.9094 138.712 96.5186 140.326 96.0831L142.749 95.4187L145.099 94.7376L145.222 94.6985C146.299 94.3663 147.463 94.4722 148.461 94.9932C149.46 95.5142 150.213 96.4083 150.556 97.4812C150.9 98.5541 150.806 99.7192 150.295 100.723C149.785 101.728 148.899 102.49 147.829 102.844L147.813 102.867Z" fill="#FFB573"/>
<path d="M130.885 75.18L129.88 76.7209C129.692 77.0057 129.576 77.3311 129.54 77.6701C129.504 78.009 129.55 78.3517 129.673 78.6694L130.846 81.6899C131.076 82.2842 131.446 82.8144 131.924 83.2361C132.402 83.6578 132.974 83.9585 133.592 84.1129L134.369 84.3083C136.217 81.8685 136.418 77.871 136.418 77.871L136.602 76.7544C136.648 76.5232 136.647 76.2852 136.6 76.0543C136.552 75.8233 136.459 75.6042 136.326 75.4097C136.193 75.2152 136.023 75.0492 135.824 74.9216C135.626 74.7939 135.405 74.7071 135.173 74.6663L132.939 74.2699C132.545 74.2071 132.142 74.2596 131.777 74.4211C131.413 74.5826 131.103 74.8462 130.885 75.18Z" fill="#FFB573"/>
<path opacity="0.2" d="M135.167 74.6496L132.934 74.2532C132.421 74.1688 131.896 74.2891 131.471 74.5882C132.173 77.5708 133.441 80.391 135.206 82.8958C135.893 81.3017 136.304 79.6027 136.423 77.871L136.607 76.7544C136.655 76.5213 136.655 76.281 136.608 76.0478C136.561 75.8146 136.467 75.5933 136.333 75.3969C136.199 75.2006 136.026 75.0333 135.826 74.9049C135.626 74.7765 135.401 74.6897 135.167 74.6496Z" fill="black"/>
<path d="M96.945 210.09C102.148 210.609 105.426 210.861 108.362 211.05C110.875 211.212 111.444 211.609 113.46 211.743C115.135 211.877 115.241 210.258 114.911 208.354C114.744 207.399 114.537 205.395 114.353 203.854L106.76 202.564C105.482 204.507 100.189 206.93 97.2186 207.031C94.3824 207.098 94.8681 209.884 96.945 210.09Z" fill="#263238"/>
<path d="M114.638 140.173C125.246 131.837 153.764 129.61 153.764 129.61L165.137 127.767C165.137 127.767 171.312 140.218 167.404 149.335C164.054 157.106 143.837 154.695 127.004 153.801C129.528 163.125 114.04 203.552 114.04 203.552C111.629 204.312 107.843 203.1 106.62 202.391C107.397 189.131 110.925 171.276 110.936 149.201C110.936 145.711 111.902 142.322 114.638 140.173Z" fill="#263238"/>
<path d="M131.895 154.075L127.987 144.187C126.385 145.131 122.253 156.023 126.111 165.224C127.166 160.239 127.635 156.074 127.016 153.784C128.612 153.874 130.248 153.991 131.895 154.075Z" fill="black"/>
<path d="M105.856 197.221C105.543 198.466 105.856 200.744 105.253 202.363C105.04 202.949 105.096 203.798 105.509 203.776C108.496 203.619 112.924 205.25 114.515 205.077C114.696 205.024 114.859 204.922 114.983 204.78C115.108 204.639 115.19 204.464 115.218 204.278L116.503 199.527C116.676 198.879 116.436 198.232 116 198.17L106.76 196.35C106.392 196.283 105.995 196.657 105.856 197.221Z" fill="#51398E"/>
<path d="M152.368 89.4001C156.143 103.631 160.743 109.343 136.887 108.807C133.9 106.384 133.079 97.183 133.079 97.183C141.068 94.3635 147.701 90.3828 152.368 89.4001Z" fill="#51398E"/>
<path d="M144.29 108.902C146.077 112.303 148.092 115.581 150.319 118.711C153.033 122 151.096 128.415 152.195 132.284C158.649 134.16 180.58 131.195 181.685 127.767C183.109 126.746 181.49 109.488 175.851 91.7562C173.556 84.5317 168.286 81.7066 163.138 83.5044C162.049 83.962 160.999 84.5092 160.001 85.1402C155.858 87.4405 152.48 89.3611 149.108 91.9014C147.991 92.7444 146.875 93.6545 145.758 94.5422C141.911 97.7636 141.811 104.592 144.29 108.902Z" fill="#51398E"/>
<path opacity="0.2" d="M157.231 108.863C163.306 110.912 169.202 110.973 171.128 110.538C165.885 112.821 161.715 111.749 157.231 108.863Z" fill="black"/>
<path d="M151.62 73.3431C152.849 77.4356 155.674 84.5819 159.403 85.5087C159.403 85.5087 155.774 87.072 151.431 95.8095C147.567 94.1346 148.505 92.2699 148.505 92.2699C151.905 88.8698 150.219 85.8995 148.053 83.4709L151.62 73.3431Z" fill="#FFB573"/>
<path d="M152.369 94.0118C154.892 92.8952 157.795 95.9547 157.795 95.9547C157.795 95.9547 160.927 88.5459 160.967 84.6713C160.019 84.7097 159.071 84.6986 158.125 84.6378C158.125 84.6378 152.888 91.8288 152.369 94.0118Z" fill="white"/>
<path d="M149.929 95.0056C149.929 95.0056 147.874 96.1222 148.053 99.4721C144.569 94.1681 148.053 90.6284 148.053 90.6284C148.627 89.911 149.435 89.4188 150.336 89.2382C149.845 91.119 149.707 93.0745 149.929 95.0056Z" fill="white"/>
<path opacity="0.2" d="M150.185 77.5026L148.069 83.4932C148.587 84.0558 149.054 84.663 149.465 85.3077C150.839 84.152 151.994 81.1651 151.302 79.4343C151.048 78.7291 150.67 78.0749 150.185 77.5026Z" fill="black"/>
<path d="M148.153 65.1639C151.559 71.0206 153.122 73.4213 152.341 78.3289C151.157 85.7041 143.547 88.9368 138.539 84.2693C134.028 80.0875 129.21 71.2104 132.956 65.0522C136.663 58.989 144.742 59.3016 148.153 65.1639Z" fill="#FFB573"/>
<path d="M142.844 59.4133C147.221 64.159 135.753 67.8438 132.052 72.2545C131.896 72.4373 131.688 72.5687 131.456 72.6312C131.224 72.6937 130.978 72.6845 130.752 72.6047C130.525 72.5249 130.328 72.3783 130.186 72.1842C130.044 71.9902 129.965 71.7577 129.958 71.5175C129.768 65.672 135.111 58.4698 142.844 59.4133Z" fill="#263238"/>
<path d="M142.587 59.9604C140.136 63.9133 143.229 69.1167 150.336 69.4517C152.279 62.1378 146.11 57.8221 142.587 59.9604Z" fill="#263238"/>
<path d="M147.595 69.4238C143.837 69.4238 142.38 67.3971 141.9 66.4201C141.455 65.5826 141.289 64.6254 141.424 63.6869C141.56 62.7484 141.99 61.8773 142.654 61.1999L143.039 61.6075C142.473 62.2091 142.108 62.9712 141.993 63.789C141.878 64.6068 142.019 65.4401 142.397 66.1744C142.899 67.1906 144.591 69.474 149.437 68.7147L149.527 69.2731C148.888 69.3739 148.242 69.4243 147.595 69.4238Z" fill="#263238"/>
<path d="M141.476 72.7067C141.783 73.1869 141.8 73.7507 141.509 73.9685C141.219 74.1862 140.733 73.9685 140.426 73.4883C140.119 73.0082 140.102 72.4443 140.393 72.2321C140.683 72.02 141.169 72.2266 141.476 72.7067Z" fill="#263238"/>
<path d="M135.669 76.7376C135.977 77.2178 135.993 77.7817 135.703 77.9994C135.413 78.2172 134.927 77.9994 134.62 77.5193C134.313 77.0391 134.296 76.4752 134.586 76.2631C134.877 76.0509 135.385 76.2575 135.669 76.7376Z" fill="#263238"/>
<path d="M134.754 76.1905L133.475 76.6539C133.475 76.6539 134.597 77.1452 134.754 76.1905Z" fill="#263238"/>
<path d="M138.093 76.5088C138.399 77.8994 138.526 79.3234 138.472 80.7464C139.438 80.9027 140.264 79.8866 140.264 79.8866L138.093 76.5088Z" fill="#ED893E"/>
<path d="M143.296 77.2736C143.549 77.0882 143.818 76.9257 144.1 76.7879C144.119 76.7779 144.139 76.7721 144.161 76.771C144.182 76.7699 144.203 76.7735 144.223 76.7814C144.242 76.7894 144.26 76.8017 144.275 76.8172C144.289 76.8328 144.3 76.8514 144.306 76.8717C144.324 76.9125 144.325 76.9585 144.309 77C144.294 77.0416 144.263 77.0756 144.223 77.095C143.585 77.4055 143.026 77.856 142.587 78.4128C142.148 78.9697 141.841 79.6185 141.688 80.3108C141.685 80.3314 141.677 80.3511 141.666 80.3688C141.656 80.3865 141.641 80.4018 141.624 80.414C141.608 80.4262 141.588 80.435 141.568 80.4398C141.548 80.4446 141.527 80.4453 141.507 80.442C141.486 80.4387 141.466 80.4314 141.449 80.4205C141.431 80.4096 141.416 80.3953 141.403 80.3785C141.391 80.3616 141.382 80.3426 141.378 80.3223C141.373 80.3021 141.372 80.2811 141.375 80.2606C141.625 79.0622 142.309 77.9984 143.296 77.2736Z" fill="#263238"/>
<path d="M153.005 68.4635C153.078 69.173 153.01 69.89 152.805 70.5732C152.6 71.2564 152.262 71.8923 151.81 72.4443C150.615 73.8456 148.974 72.8462 148.432 71.0317C147.947 69.4015 147.98 66.7048 149.605 66.0069C151.23 65.3091 152.832 66.6434 153.005 68.4635Z" fill="#FFB573"/>
<path d="M138.818 69.9039C138.854 69.8784 138.896 69.8616 138.939 69.8548C138.983 69.848 139.027 69.8514 139.07 69.8648C139.451 69.9739 139.854 69.9887 140.243 69.908C140.632 69.8273 140.996 69.6535 141.303 69.4014C141.332 69.3701 141.366 69.3451 141.405 69.328C141.444 69.311 141.486 69.3021 141.529 69.3021C141.571 69.3021 141.613 69.311 141.652 69.328C141.691 69.3451 141.726 69.3701 141.755 69.4014C141.809 69.4717 141.835 69.5594 141.829 69.6479C141.823 69.7363 141.785 69.8195 141.722 69.8816C141.337 70.2167 140.873 70.4492 140.375 70.5575C139.876 70.6658 139.358 70.6465 138.869 70.5013C138.784 70.4744 138.714 70.4152 138.673 70.3368C138.633 70.2584 138.624 70.167 138.651 70.0826C138.683 70.0049 138.743 69.9415 138.818 69.9039Z" fill="#263238"/>
<path d="M134.034 74.1527C134.069 74.1299 134.108 74.1146 134.149 74.1079C134.191 74.1011 134.233 74.1031 134.274 74.1136C134.356 74.1405 134.425 74.199 134.465 74.2764C134.505 74.3538 134.512 74.4438 134.486 74.5268C134.363 75.0475 134.122 75.5329 133.781 75.9454C133.44 76.3578 133.009 76.6862 132.521 76.9052C132.48 76.9197 132.437 76.9257 132.395 76.9228C132.352 76.9198 132.31 76.908 132.273 76.888C132.235 76.868 132.201 76.8404 132.175 76.8068C132.148 76.7732 132.129 76.7345 132.119 76.693C132.093 76.6071 132.102 76.5148 132.142 76.4349C132.183 76.355 132.252 76.2936 132.336 76.2631C132.72 76.0843 133.059 75.8205 133.326 75.4917C133.593 75.1628 133.781 74.7774 133.877 74.3648C133.887 74.3206 133.906 74.279 133.933 74.2425C133.96 74.2059 133.994 74.1754 134.034 74.1527Z" fill="#263238"/>
<path d="M140.538 72.1595L139.259 72.6229C139.259 72.6229 140.387 73.1143 140.538 72.1595Z" fill="#263238"/>
<path d="M146.11 130.788L147.26 129.023C147.473 128.695 147.762 128.423 148.102 128.229C148.442 128.035 148.823 127.924 149.214 127.907L152.916 127.762C153.645 127.732 154.371 127.878 155.033 128.187C155.694 128.496 156.272 128.959 156.718 129.537L157.276 130.263C155.562 133.317 151.458 135.355 151.458 135.355L150.342 136.064C150.119 136.216 149.868 136.322 149.603 136.376C149.339 136.431 149.066 136.432 148.801 136.38C148.536 136.328 148.284 136.224 148.06 136.074C147.836 135.924 147.643 135.731 147.494 135.505L146.065 133.334C145.827 132.95 145.704 132.506 145.712 132.054C145.72 131.602 145.858 131.163 146.11 130.788Z" fill="#FFB573"/>
<path d="M176.588 94.2519C176.7 94.8102 176.778 95.2066 176.862 95.6756C176.945 96.1445 177.012 96.58 177.079 97.0267C177.219 97.9311 177.319 98.83 177.42 99.7289C177.604 101.532 177.721 103.341 177.755 105.156C177.755 106.066 177.755 106.976 177.755 107.886C177.755 108.796 177.699 109.711 177.632 110.627C177.52 112.468 177.311 114.302 177.007 116.121L176.973 116.355C176.941 116.546 176.891 116.733 176.822 116.914C176.494 117.759 176.043 118.551 175.482 119.264C175.056 119.813 174.589 120.33 174.087 120.811C173.208 121.647 172.275 122.424 171.295 123.139C169.486 124.449 167.602 125.652 165.651 126.74C163.741 127.812 161.815 128.8 159.861 129.721C157.907 130.643 155.953 131.502 153.904 132.278C153.417 132.46 152.88 132.458 152.394 132.272C151.909 132.086 151.508 131.729 151.267 131.268C151.026 130.807 150.962 130.274 151.087 129.769C151.212 129.264 151.516 128.822 151.944 128.527H151.978C153.653 127.36 155.422 126.176 157.12 124.987C158.817 123.798 160.509 122.597 162.144 121.369C163.78 120.141 165.355 118.879 166.784 117.6C167.457 117 168.091 116.356 168.682 115.674C168.917 115.399 169.135 115.11 169.335 114.809C169.503 114.558 169.559 114.351 169.525 114.396L169.341 115.194C169.43 113.603 169.492 112.012 169.469 110.398C169.447 108.785 169.391 107.171 169.274 105.546C169.157 103.922 169.023 102.303 168.827 100.684C168.738 99.8741 168.626 99.0645 168.526 98.2661L168.353 97.0713L168.185 95.9547L168.157 95.7816C167.964 94.6678 168.219 93.5227 168.867 92.5966C169.516 91.6705 170.504 91.0387 171.617 90.8395C172.73 90.6402 173.876 90.8897 174.806 91.5333C175.735 92.177 176.372 93.1624 176.577 94.2742L176.588 94.2519Z" fill="#FFB573"/>
<path d="M166.566 82.9907C173.595 83.3369 175.806 88.116 178.888 97.6017C172.395 104.363 167.806 105.172 167.806 105.172C167.806 105.172 162.323 88.853 166.566 82.9907Z" fill="#51398E"/>
<path d="M132.247 211.743C137.478 211.743 140.761 211.665 143.698 211.564C146.216 211.475 146.819 211.787 148.84 211.743C150.515 211.709 150.47 210.068 149.957 208.225C149.7 207.293 149.298 205.317 148.935 203.809L141.269 203.251C140.192 205.311 135.167 208.248 132.219 208.644C129.394 209.018 130.159 211.743 132.247 211.743Z" fill="#263238"/>
<path d="M129.567 140.173C136.412 135.009 158.309 130.838 165.913 130.386C173.517 129.934 180.736 129.051 181.685 127.767C181.685 127.767 186.241 140.218 182.333 149.335C178.983 157.106 161.073 155.376 144.217 155.147C148.767 178.629 149.114 203.39 149.114 203.39C146.702 204.144 142.258 204.641 141.035 203.949C141.816 190.689 128.596 171.109 125.871 149.206C125.638 147.509 125.857 145.779 126.506 144.193C127.155 142.607 128.211 141.221 129.567 140.173Z" fill="#263238"/>
<path d="M139.516 198.477C139.46 199.761 140.203 201.939 139.946 203.642C139.874 203.89 139.891 204.155 139.993 204.392C140.095 204.629 140.275 204.824 140.504 204.943C143.854 205.847 148.036 204.943 149.56 204.462C149.728 204.375 149.867 204.241 149.961 204.077C150.055 203.912 150.1 203.725 150.091 203.536L150.403 198.628C150.448 197.952 150.085 197.366 149.65 197.394L140.225 197.45C139.857 197.45 139.539 197.902 139.516 198.477Z" fill="#51398E"/>
<path d="M176.242 213.73C188.553 213.73 208.624 214.35 216.44 213.233C224.257 212.117 211.477 197.724 211.6 193.631C211.723 189.539 176.666 189.902 177.107 193.754C177.855 200.208 169.542 213.73 176.242 213.73Z" fill="#263238"/>
<path d="M207.993 193.631C207.96 193.508 204.163 181.17 195.559 179.115C193.954 178.718 192.278 178.706 190.667 179.08C189.056 179.455 187.557 180.205 186.292 181.27C184.536 182.77 183.133 184.639 182.183 186.744C181.234 188.849 180.761 191.138 180.798 193.447L179.681 193.475C179.642 190.994 180.152 188.536 181.174 186.275C182.196 184.015 183.706 182.008 185.594 180.399C186.985 179.217 188.638 178.383 190.415 177.966C192.193 177.549 194.044 177.56 195.816 177.998C205.051 180.187 208.903 192.732 209.065 193.268L207.993 193.631Z" fill="#263238"/>
<path d="M199.836 196.802L194.097 196.892C193.691 196.885 193.3 196.735 192.994 196.468C192.687 196.202 192.485 195.836 192.422 195.434C192.393 195.247 192.406 195.056 192.459 194.874C192.512 194.693 192.604 194.524 192.728 194.382C192.852 194.239 193.006 194.125 193.179 194.047C193.351 193.97 193.539 193.93 193.728 193.933L199.468 193.849C199.874 193.853 200.265 194.002 200.571 194.268C200.878 194.533 201.081 194.899 201.143 195.3C201.172 195.488 201.16 195.679 201.107 195.862C201.055 196.044 200.963 196.212 200.839 196.355C200.714 196.498 200.56 196.613 200.387 196.69C200.214 196.767 200.026 196.805 199.836 196.802Z" fill="white"/>
</svg>
